<svg width="25" height="28" viewBox="0 0 25 28" fill="none" xmlns="http://www.w3.org/2000/svg">
<path d="M21.7824 6.49734C21.9941 4.62321 21.6182 3.29154 20.5435 2.07712C19.2553 0.622961 16.933 0 13.9578 0H5.325C5.03113 0.000126195 4.74692 0.104143 4.52343 0.293371C4.29993 0.482599 4.15179 0.74464 4.10561 1.03244L0.509208 23.6393C0.492361 23.7443 0.498685 23.8516 0.527745 23.954C0.556805 24.0563 0.607908 24.1512 0.67753 24.232C0.747152 24.3129 0.833634 24.3778 0.931009 24.4223C1.02838 24.4668 1.13433 24.4898 1.24155 24.4897H6.10499L5.74852 26.7296C5.72354 26.8864 5.73312 27.0467 5.77661 27.1995C5.82009 27.3523 5.89645 27.494 6.00043 27.6147C6.10441 27.7355 6.23354 27.8324 6.37893 27.8989C6.52431 27.9654 6.68251 27.9999 6.84262 28H11.3355C12.0925 28 12.7349 27.4575 12.8566 26.7208L12.9007 26.4933L13.7478 21.1684L13.8007 20.8814L13.8025 20.8692C13.8253 20.7241 13.8998 20.5918 14.0124 20.4965C14.1251 20.4011 14.2685 20.349 14.4166 20.3495H15.0872C17.3213 20.3495 19.3665 19.9015 20.99 18.7571C21.6588 18.2846 22.2465 17.7019 22.7423 16.9984C23.5658 15.8616 24.0987 14.5435 24.2952 13.1574C24.7223 10.9771 24.5247 9.03469 23.2894 7.63827C22.9086 7.21692 22.4543 6.86717 21.9482 6.60584L21.7824 6.49909V6.49734ZM8.5173 15.434C8.69216 15.3434 8.88647 15.296 9.08376 15.2958H11.6178C16.5942 15.2958 20.4888 13.2939 21.6271 7.49828L21.6324 7.47028C22.0153 7.68727 22.3382 7.94275 22.5994 8.23674C23.5629 9.32692 23.7976 10.9228 23.3935 12.9789C22.9135 15.4235 21.8653 17.0159 20.4588 18.0081C19.0436 19.0056 17.2083 19.4343 15.0889 19.4343H14.4184C14.052 19.4338 13.6974 19.5629 13.4183 19.7983C13.1392 20.0337 12.9538 20.36 12.8955 20.7187L12.8425 21.0057L11.9955 26.3306L11.9531 26.5581L11.9514 26.5651C11.9278 26.7097 11.8531 26.8414 11.7406 26.9363C11.628 27.0312 11.485 27.0833 11.3372 27.0831H6.84439C6.81723 27.0832 6.79038 27.0774 6.7657 27.0661C6.74101 27.0549 6.71909 27.0385 6.70146 27.018C6.68383 26.9975 6.67091 26.9735 6.66359 26.9475C6.65627 26.9216 6.65474 26.8944 6.6591 26.8678L7.02615 24.558L8.5173 15.434Z" fill="#00031A"/>
</svg>
