<svg width="14" height="20" viewBox="0 0 14 20" fill="none" xmlns="http://www.w3.org/2000/svg">
<path fill-rule="evenodd" clip-rule="evenodd" d="M11.6837 9.99999C10.5686 8.84309 9.00293 8.12341 7.2692 8.12341H0.792809V11.8766H7.2692C9.00293 11.8766 10.5686 11.1569 11.6837 9.99999Z" fill="white"/>
<path d="M8.47638 0.617004H0.792809L0.792809 4.3702L7.88112 4.37019C11.6056 4.37019 12.8566 7.36381 13.0354 8.48083C13.4728 7.71574 13.7434 6.82845 13.7434 5.88399C13.7434 2.97511 11.3853 0.617004 8.47638 0.617004Z" fill="white"/>
<path d="M8.47638 19.3831H0.792809L0.792809 15.6299L7.88112 15.6299C11.6056 15.6299 12.8566 12.6362 13.0354 11.5192C13.4728 12.2843 13.7434 13.1716 13.7434 14.1161C13.7434 17.0249 11.3853 19.3831 8.47638 19.3831Z" fill="white"/>
</svg>
