<svg width="21" height="28" viewBox="0 0 21 28" fill="none" xmlns="http://www.w3.org/2000/svg">
<path d="M5.36159 24.7692V27.4615C5.36159 27.7588 5.60381 28 5.90225 28H8.06488C8.20827 28 8.34579 27.9433 8.44718 27.8423C8.54857 27.7413 8.60554 27.6043 8.60554 27.4615V24.7692H9.68685V27.4615C9.68685 27.7588 9.92907 28 10.2275 28H12.3901C12.5335 28 12.671 27.9433 12.7724 27.8423C12.8738 27.7413 12.9308 27.6043 12.9308 27.4615V24.7692H13.1125C17.4204 24.7692 20.5 22.5443 20.5 18.6954C20.5 15.4603 18.3222 13.692 15.7725 13.44V13.2505C17.8702 12.7292 19.4122 11.1526 19.4122 8.53354C19.4122 5.23385 16.9252 3.23077 13.1298 3.23077H12.9308V0.538462C12.9308 0.395653 12.8738 0.258693 12.7724 0.157712C12.671 0.0567307 12.5335 0 12.3901 0H10.2275C10.0841 0 9.9466 0.0567307 9.84521 0.157712C9.74381 0.258693 9.68685 0.395653 9.68685 0.538462V3.23077H8.44766V0.538462C8.44766 0.395653 8.3907 0.258693 8.28931 0.157712C8.18792 0.0567307 8.0504 0 7.90701 0H5.90225C5.75886 0 5.62134 0.0567307 5.51995 0.157712C5.41855 0.258693 5.36159 0.395653 5.36159 0.538462V3.23077L1.04066 3.25446C0.897266 3.25446 0.759747 3.31119 0.658354 3.41217C0.556962 3.51315 0.5 3.65011 0.5 3.79292V5.92308C0.5 6.21815 0.737889 6.46154 1.03633 6.46154L2.66912 6.45077C3.09742 6.45361 3.5072 6.62506 3.80904 6.9277C4.11089 7.23033 4.28029 7.63959 4.28028 8.06615V19.9231C4.28028 20.3515 4.10939 20.7624 3.80521 21.0653C3.50103 21.3683 3.08848 21.5385 2.6583 21.5385L1.04066 21.5622C0.897266 21.5622 0.759747 21.6189 0.658354 21.7199C0.556962 21.8208 0.5 21.9578 0.5 22.1006V24.2545C0.5 24.5517 0.742215 24.7929 1.04066 24.7929L5.36159 24.7692ZM8.44766 6.43354H12.1652C14.1246 6.43354 15.2751 7.50615 15.2751 9.25938C15.2751 11.1354 14.0316 12.1929 11.2158 12.1929H8.44766V6.43354ZM8.44766 15.1588H12.4269C14.8858 15.1588 16.2245 16.408 16.2245 18.4412C16.2245 20.4938 14.8707 21.5643 11.5575 21.5643H8.44766V15.1609V15.1588Z" fill="#00031A"/>
</svg>
