<svg width="85" height="10" viewBox="0 0 85 10" fill="none" xmlns="http://www.w3.org/2000/svg">
<path d="M0.743362 8.93115V1.0688H3.6027C4.24067 1.0688 4.74221 1.16989 5.10731 1.37207C5.47241 1.5705 5.73183 1.82883 5.88556 2.14707C6.03929 2.46531 6.11615 2.79852 6.11615 3.14671C6.11615 3.50613 6.01238 3.82999 5.80485 4.11827C5.59732 4.40656 5.30524 4.62932 4.9286 4.78657C5.2399 4.88017 5.50508 5.0187 5.72414 5.20215C5.94705 5.38186 6.11615 5.59714 6.23144 5.84799C6.34674 6.09883 6.40439 6.37402 6.40439 6.67353C6.40439 6.93936 6.36019 7.20518 6.2718 7.471C6.18341 7.73682 6.03736 7.98018 5.83367 8.20108C5.63383 8.42197 5.3648 8.59981 5.0266 8.73459C4.69225 8.86563 4.2791 8.93115 3.78717 8.93115H0.743362ZM1.74644 8.0326H3.90247C4.29832 8.0326 4.60577 7.96895 4.82484 7.84165C5.0439 7.71436 5.1957 7.5515 5.28025 7.35307C5.36865 7.15464 5.41284 6.95059 5.41284 6.74093C5.41284 6.49008 5.36096 6.25421 5.2572 6.03332C5.15343 5.81242 4.96511 5.63458 4.69225 5.4998C4.42322 5.36127 4.03698 5.29201 3.53352 5.29201H1.74644V8.0326ZM1.74644 4.40469H3.4067C3.97933 4.40469 4.40785 4.29049 4.69225 4.06211C4.98048 3.83373 5.1246 3.53234 5.1246 3.15794C5.1246 2.967 5.08617 2.7798 5.00931 2.59635C4.93629 2.40915 4.79409 2.25564 4.58271 2.13584C4.37134 2.01603 4.06388 1.95613 3.66035 1.95613H1.74644V4.40469Z" fill="white"/>
<path d="M8.25336 8.93115V1.0688H9.25643V7.98767H13.2226V8.93115H8.25336Z" fill="white"/>
<path d="M14.3545 8.93115L17.2138 1.0688H18.1477L21.0071 8.93115H19.9809L19.2892 7.01049H16.0839L15.4037 8.93115H14.3545ZM16.3837 6.14563H18.9779L17.9402 3.23657C17.9133 3.16169 17.8825 3.07557 17.848 2.97823C17.8172 2.87714 17.7865 2.7798 17.7557 2.6862C17.725 2.58886 17.7019 2.50649 17.6865 2.4391C17.6673 2.50649 17.6423 2.58886 17.6116 2.6862C17.5847 2.7798 17.5539 2.87714 17.5194 2.97823C17.4886 3.07557 17.4598 3.16169 17.4329 3.23657L16.3837 6.14563Z" fill="white"/>
<path d="M25.2014 9.06594C24.5903 9.06594 24.0715 8.94987 23.6449 8.71775C23.2183 8.48562 22.8743 8.17487 22.613 7.7855C22.3517 7.39238 22.1595 6.95433 22.0365 6.47136C21.9174 5.98839 21.8578 5.49793 21.8578 4.99998C21.8578 4.50577 21.9193 4.01906 22.0423 3.53983C22.1691 3.05685 22.3651 2.61881 22.6303 2.22569C22.8955 1.83258 23.2394 1.51995 23.6622 1.28783C24.0888 1.05196 24.6019 0.934021 25.2014 0.934021C25.6972 0.934021 26.1161 1.00328 26.4581 1.14181C26.804 1.28034 27.0846 1.45818 27.2998 1.67533C27.5188 1.88873 27.6879 2.11337 27.8071 2.34924L26.9078 2.79852C26.7809 2.61507 26.6426 2.4522 26.4927 2.30993C26.3428 2.16392 26.1641 2.04973 25.9566 1.96736C25.7491 1.88499 25.4973 1.84381 25.2014 1.84381C24.771 1.84381 24.4078 1.93928 24.1119 2.13022C23.8159 2.32116 23.5776 2.57201 23.397 2.88276C23.2202 3.19351 23.0915 3.53421 23.0108 3.90487C22.9339 4.27552 22.8955 4.64056 22.8955 4.99998C22.8955 5.38935 22.9397 5.77124 23.0281 6.14563C23.1165 6.52003 23.2548 6.85886 23.4431 7.16212C23.6315 7.46164 23.8697 7.70126 24.158 7.88097C24.4501 8.05693 24.7979 8.14492 25.2014 8.14492C25.6472 8.14492 26.0046 8.05319 26.2736 7.86973C26.5427 7.68254 26.7694 7.44105 26.9539 7.14528L27.8763 7.48223C27.7379 7.77426 27.5496 8.04009 27.3113 8.2797C27.073 8.51931 26.779 8.71026 26.4293 8.85253C26.0834 8.9948 25.6741 9.06594 25.2014 9.06594Z" fill="white"/>
<path d="M29.5673 8.93115V1.0688H30.5704V4.92135L33.718 1.0688H34.8479L32.6227 3.78693L35.5051 8.93115H34.3406L31.9424 4.60686L30.5704 6.24672V8.93115H29.5673Z" fill="white"/>
<path d="M43.9264 9.06587L41.7348 4.07316C41.6772 3.94138 41.6156 3.7983 41.5503 3.64392C41.4888 3.48578 41.4349 3.3427 41.3888 3.21468C41.4003 3.31635 41.408 3.4519 41.4119 3.62133C41.4196 3.787 41.4234 3.93761 41.4234 4.07316V8.93032H40.4199V1.02332H41.3657L43.7187 6.3436C43.7533 6.42643 43.7879 6.51304 43.8225 6.6034C43.8571 6.69377 43.8918 6.78413 43.9264 6.8745C43.9571 6.7879 43.9898 6.7013 44.0244 6.6147C44.059 6.52433 44.0955 6.43397 44.134 6.3436L46.4754 1.02332H47.4328V8.93032H46.4293V4.07316C46.4293 3.93761 46.4312 3.78512 46.4351 3.61568C46.4428 3.44248 46.4485 3.30505 46.4524 3.20339C46.4062 3.33141 46.3486 3.47825 46.2794 3.64392C46.214 3.80959 46.1525 3.9602 46.0948 4.09575L43.9264 9.06587Z" fill="white"/>
<path d="M48.9228 8.93032L51.7833 1.02332H52.7176L55.5781 8.93032H54.5515L53.8595 6.99875H50.6529L49.9724 8.93032H48.9228ZM50.9528 6.12898H53.548L52.51 3.20339C52.483 3.12808 52.4523 3.04148 52.4177 2.94359C52.3869 2.84193 52.3562 2.74403 52.3254 2.6499C52.2947 2.552 52.2716 2.46917 52.2562 2.40139C52.237 2.46917 52.212 2.552 52.1812 2.6499C52.1543 2.74403 52.1236 2.84193 52.089 2.94359C52.0582 3.04148 52.0294 3.12808 52.0024 3.20339L50.9528 6.12898Z" fill="white"/>
<path d="M57.0681 8.93032V1.02332H60.2516C60.8975 1.02332 61.405 1.13251 61.7741 1.35089C62.147 1.56928 62.4104 1.85167 62.5642 2.19807C62.7218 2.54071 62.8006 2.8984 62.8006 3.27116C62.8006 3.58368 62.7372 3.89243 62.6103 4.19741C62.4873 4.49863 62.2874 4.76408 62.0105 4.99376C61.7337 5.22344 61.3704 5.38346 60.9205 5.47383L62.6507 8.93032H61.5203L59.8594 5.5416H58.0716V8.93032H57.0681ZM58.0716 4.62665H60.2746C60.6514 4.62665 60.9494 4.56076 61.1685 4.42897C61.3915 4.29719 61.5492 4.12964 61.6414 3.92632C61.7376 3.72299 61.7856 3.51214 61.7856 3.29376C61.7856 3.09796 61.7414 2.89652 61.653 2.68943C61.5684 2.47858 61.4165 2.30161 61.1974 2.15854C60.9782 2.01169 60.6706 1.93827 60.2746 1.93827H58.0716V4.62665Z" fill="white"/>
<path d="M64.7389 8.93032V1.02332H65.7423V4.89775L68.8912 1.02332H70.0216L67.7954 3.75688L70.679 8.93032H69.5141L67.1149 4.58147L65.7423 6.23064V8.93032H64.7389Z" fill="white"/>
<path d="M72.3308 8.93032V1.02332H77.1291V1.94956H73.3343V4.37814H75.8372V5.30439H73.3343V7.99277H77.3828V8.93032H72.3308Z" fill="white"/>
<path d="M80.9545 8.93032V1.96086H78.7053V1.02332H84.2072V1.96086H81.958V8.93032H80.9545Z" fill="white"/>
</svg>
