<svg width="24" height="24" viewBox="0 0 24 24" fill="none" xmlns="http://www.w3.org/2000/svg">
<path d="M10.775 19.8125L9.35 18.4875C7.56667 16.8709 5.97933 15.2832 4.588 13.7245C3.196 12.1665 2.5 10.4959 2.5 8.71252C2.5 7.29586 2.97933 6.10819 3.938 5.14952C4.896 4.19152 6.08333 3.71252 7.5 3.71252C8.3 3.71252 9.096 3.89986 9.888 4.27452C10.6793 4.64986 11.3833 5.25419 12 6.08752C12.6167 5.25419 13.321 4.64986 14.113 4.27452C14.9043 3.89986 15.7 3.71252 16.5 3.71252C17.9167 3.71252 19.104 4.19152 20.062 5.14952C21.0207 6.10819 21.5 7.29586 21.5 8.71252C21.5 10.5125 20.7917 12.1999 19.375 13.7745C17.9583 15.3499 16.375 16.9292 14.625 18.5125L13.225 19.7875C12.875 20.1209 12.4667 20.2875 12 20.2875C11.5333 20.2875 11.125 20.1292 10.775 19.8125ZM11.275 7.61252C10.7417 6.77919 10.175 6.17086 9.575 5.78752C8.975 5.40419 8.28333 5.21252 7.5 5.21252C6.5 5.21252 5.66667 5.54586 5 6.21252C4.33333 6.87919 4 7.71252 4 8.71252C4 9.51252 4.25833 10.3499 4.775 11.2245C5.29167 12.0999 5.94167 12.9709 6.725 13.8375C7.50833 14.7042 8.354 15.5499 9.262 16.3745C10.1707 17.1999 11.0167 17.9709 11.8 18.6875C11.85 18.7375 11.9167 18.7625 12 18.7625C12.0833 18.7625 12.15 18.7375 12.2 18.6875C12.9833 17.9709 13.8293 17.1999 14.738 16.3745C15.646 15.5499 16.4917 14.7042 17.275 13.8375C18.0583 12.9709 18.7083 12.0999 19.225 11.2245C19.7417 10.3499 20 9.51252 20 8.71252C20 7.71252 19.6667 6.87919 19 6.21252C18.3333 5.54586 17.5 5.21252 16.5 5.21252C15.7167 5.21252 15.025 5.40419 14.425 5.78752C13.825 6.17086 13.2583 6.77919 12.725 7.61252C12.6417 7.72919 12.5333 7.82086 12.4 7.88752C12.2667 7.95419 12.1333 7.98752 12 7.98752C11.8667 7.98752 11.7333 7.95419 11.6 7.88752C11.4667 7.82086 11.3583 7.72919 11.275 7.61252Z" fill="#1C1B1F"/>
</svg>
