<svg width="19" height="20" viewBox="0 0 19 20" fill="none" xmlns="http://www.w3.org/2000/svg">
<path d="M10.3625 19.5C10.1625 19.5 9.96683 19.4583 9.7755 19.375C9.5835 19.2917 9.42083 19.1833 9.2875 19.05L0.487497 10.25C0.337497 10.1 0.22083 9.93333 0.137497 9.75C0.0541636 9.56667 0.0124969 9.36667 0.0124969 9.15V2C0.0124969 1.58333 0.158497 1.22933 0.450497 0.938C0.74183 0.646 1.09583 0.5 1.5125 0.5H8.6625C8.8625 0.5 9.0585 0.541667 9.2505 0.625C9.44183 0.708333 9.60416 0.816667 9.7375 0.95L18.5375 9.75C18.8375 10.05 18.9875 10.4123 18.9875 10.837C18.9875 11.2623 18.8458 11.6167 18.5625 11.9L11.4125 19.05C11.2792 19.1833 11.1208 19.2917 10.9375 19.375C10.7542 19.4583 10.5625 19.5 10.3625 19.5ZM4.0125 5.75C4.3625 5.75 4.6585 5.629 4.9005 5.387C5.14183 5.14567 5.2625 4.85 5.2625 4.5C5.2625 4.15 5.14183 3.854 4.9005 3.612C4.6585 3.37067 4.3625 3.25 4.0125 3.25C3.6625 3.25 3.36683 3.37067 3.1255 3.612C2.8835 3.854 2.7625 4.15 2.7625 4.5C2.7625 4.85 2.8835 5.14567 3.1255 5.387C3.36683 5.629 3.6625 5.75 4.0125 5.75Z" fill="white"/>
</svg>
