<svg width="21" height="20" viewBox="0 0 21 20" fill="none" xmlns="http://www.w3.org/2000/svg">
<path d="M6.50298 20C5.95298 20 5.48231 19.8043 5.09098 19.413C4.69898 19.021 4.50298 18.55 4.50298 18C4.50298 17.45 4.69898 16.979 5.09098 16.587C5.48231 16.1957 5.95298 16 6.50298 16C7.05298 16 7.52364 16.1957 7.91498 16.587C8.30698 16.979 8.50298 17.45 8.50298 18C8.50298 18.55 8.30698 19.021 7.91498 19.413C7.52364 19.8043 7.05298 20 6.50298 20ZM16.503 20C15.953 20 15.4823 19.8043 15.091 19.413C14.699 19.021 14.503 18.55 14.503 18C14.503 17.45 14.699 16.979 15.091 16.587C15.4823 16.1957 15.953 16 16.503 16C17.053 16 17.524 16.1957 17.916 16.587C18.3073 16.979 18.503 17.45 18.503 18C18.503 18.55 18.3073 19.021 17.916 19.413C17.524 19.8043 17.053 20 16.503 20ZM6.50298 15C5.75298 15 5.18631 14.6707 4.80298 14.012C4.41964 13.354 4.40298 12.7 4.75298 12.05L6.10298 9.6L2.50298 2H1.47798C1.19464 2 0.96131 1.904 0.777976 1.712C0.594643 1.52067 0.502976 1.28333 0.502976 1C0.502976 0.716667 0.598976 0.479 0.790976 0.287C0.98231 0.0956666 1.21964 0 1.50298 0H3.12798C3.31131 0 3.48631 0.0500001 3.65298 0.15C3.81964 0.25 3.94464 0.391667 4.02798 0.575L4.70298 2H19.453C19.903 2 20.2113 2.16667 20.378 2.5C20.5446 2.83333 20.5363 3.18333 20.353 3.55L16.803 9.95C16.6196 10.2833 16.378 10.5417 16.078 10.725C15.778 10.9083 15.4363 11 15.053 11H7.60298L6.50298 13H17.528C17.8113 13 18.0446 13.0957 18.228 13.287C18.4113 13.479 18.503 13.7167 18.503 14C18.503 14.2833 18.407 14.5207 18.215 14.712C18.0236 14.904 17.7863 15 17.503 15H6.50298Z" fill="white"/>
</svg>
