<svg width="21" height="20" viewBox="0 0 21 20" fill="none" xmlns="http://www.w3.org/2000/svg">
<path d="M3.925 4.2751C3.675 4.2751 3.46667 4.17076 3.3 3.9621C3.13333 3.7541 3.11667 3.5251 3.25 3.2751C3.43333 2.80843 3.725 2.4291 4.125 2.1371C4.525 1.84576 5.025 1.7001 5.625 1.7001C5.89167 1.7001 6.11267 1.63743 6.288 1.5121C6.46267 1.38743 6.58333 1.21676 6.65 1.0001C6.71666 0.883431 6.80433 0.787431 6.913 0.712098C7.021 0.637431 7.15 0.600098 7.3 0.600098C7.58333 0.600098 7.8 0.712431 7.95 0.937098C8.1 1.16243 8.11667 1.39176 8 1.6251C7.8 2.09176 7.496 2.47076 7.088 2.7621C6.67933 3.0541 6.19167 3.2001 5.625 3.2001C5.35833 3.2001 5.13333 3.25843 4.95 3.3751C4.76666 3.49176 4.64166 3.6501 4.575 3.8501C4.50833 4.0001 4.41667 4.10843 4.3 4.1751C4.18333 4.24176 4.05833 4.2751 3.925 4.2751ZM3.9 19.4001C3.65 19.4001 3.43767 19.3128 3.263 19.1381C3.08767 18.9628 3 18.7501 3 18.5001V10.1501L1.725 11.1251C1.55833 11.2584 1.375 11.3124 1.175 11.2871C0.974999 11.2624 0.808332 11.1584 0.674999 10.9751C0.558332 10.7918 0.512666 10.6041 0.537999 10.4121C0.562666 10.2208 0.658332 10.0584 0.824999 9.9251L3 8.2501V6.1251C3 5.90843 3.071 5.7291 3.213 5.5871C3.35433 5.44576 3.53333 5.3751 3.75 5.3751C3.96667 5.3751 4.14567 5.44576 4.287 5.5871C4.429 5.7291 4.5 5.90843 4.5 6.1251V7.1001L9.95 2.9501C10.0333 2.88343 10.121 2.83343 10.213 2.8001C10.3043 2.76676 10.4 2.7501 10.5 2.7501C10.6 2.7501 10.696 2.76676 10.788 2.8001C10.8793 2.83343 10.9667 2.88343 11.05 2.9501L20.175 9.9251C20.3417 10.0584 20.4373 10.2208 20.462 10.4121C20.4873 10.6041 20.4417 10.7918 20.325 10.9751C20.1917 11.1418 20.025 11.2374 19.825 11.2621C19.625 11.2874 19.4417 11.2334 19.275 11.1001L18 10.1501V18.5001C18 18.7501 17.9127 18.9628 17.738 19.1381C17.5627 19.3128 17.35 19.4001 17.1 19.4001H11.7V14.7001C11.7 14.3668 11.5833 14.0874 11.35 13.8621C11.1167 13.6374 10.8333 13.5251 10.5 13.5251C10.1667 13.5251 9.88333 13.6374 9.65 13.8621C9.41667 14.0874 9.3 14.3668 9.3 14.7001V19.4001H3.9Z" fill="white"/>
</svg>
