<svg width="69" height="21" viewBox="0 0 69 21" fill="none" xmlns="http://www.w3.org/2000/svg">
<rect width="69" height="21" rx="4" fill="#2751B9"/>
<path d="M21.5839 15V5.2H22.7599L27.9819 13.054V5.2H29.1579V15H27.9819L22.7599 7.146V15H21.5839ZM34.2882 15.168C33.6255 15.168 33.0375 15.0187 32.5242 14.72C32.0109 14.412 31.6049 13.9873 31.3062 13.446C31.0169 12.9047 30.8722 12.2653 30.8722 11.528C30.8722 10.8 31.0169 10.1653 31.3062 9.624C31.5955 9.07333 31.9969 8.64867 32.5102 8.35C33.0329 8.042 33.6349 7.888 34.3162 7.888C34.9882 7.888 35.5669 8.042 36.0522 8.35C36.5469 8.64867 36.9249 9.04533 37.1862 9.54C37.4475 10.0347 37.5782 10.5667 37.5782 11.136C37.5782 11.2387 37.5735 11.3413 37.5642 11.444C37.5642 11.5467 37.5642 11.6633 37.5642 11.794H32.0342C32.0622 12.326 32.1835 12.7693 32.3982 13.124C32.6222 13.4693 32.8975 13.7307 33.2242 13.908C33.5602 14.0853 33.9149 14.174 34.2882 14.174C34.7735 14.174 35.1795 14.062 35.5062 13.838C35.8329 13.614 36.0709 13.3107 36.2202 12.928H37.3822C37.1955 13.572 36.8362 14.1087 36.3042 14.538C35.7815 14.958 35.1095 15.168 34.2882 15.168ZM34.2882 8.882C33.7282 8.882 33.2289 9.05467 32.7902 9.4C32.3609 9.736 32.1135 10.2307 32.0482 10.884H36.4162C36.3882 10.2587 36.1735 9.76867 35.7722 9.414C35.3709 9.05933 34.8762 8.882 34.2882 8.882ZM40.2635 15L38.2335 8.056H39.4095L40.8795 13.502L42.5035 8.056H43.8335L45.4715 13.502L46.9275 8.056H48.1175L46.0875 15H44.8835L43.1755 9.274L41.4675 15H40.2635Z" fill="white"/>
</svg>
